<mxfile host="app.diagrams.net" agent="Mozilla/5.0 (Windows NT 10.0; Win64; x64) AppleWebKit/537.36 (KHTML, like Gecko) Chrome/135.0.0.0 Safari/537.36" version="26.2.14">
  <diagram name="Página-1" id="1X0_Ec793GvwDymV32Ux">
    <mxGraphModel dx="1246" dy="627" grid="0" gridSize="10" guides="1" tooltips="1" connect="1" arrows="1" fold="1" page="1" pageScale="1" pageWidth="827" pageHeight="1169" math="0" shadow="0">
      <root>
        <mxCell id="0" />
        <mxCell id="1" parent="0" />
        <mxCell id="ovzpAfmYLOpZnLP-KOeR-3" value="" style="edgeStyle=orthogonalEdgeStyle;rounded=0;orthogonalLoop=1;jettySize=auto;html=1;endArrow=none;startFill=0;strokeWidth=3;" edge="1" parent="1" source="ovzpAfmYLOpZnLP-KOeR-1" target="ovzpAfmYLOpZnLP-KOeR-2">
          <mxGeometry relative="1" as="geometry" />
        </mxCell>
        <mxCell id="ovzpAfmYLOpZnLP-KOeR-1" value="&lt;font style=&quot;font-size: 14px;&quot;&gt;Proveer materiales de calidad&lt;/font&gt;" style="whiteSpace=wrap;html=1;aspect=fixed;fillColor=#d5e8d4;strokeColor=#82b366;fontFamily=Helvetica;" vertex="1" parent="1">
          <mxGeometry x="21" y="19" width="119" height="119" as="geometry" />
        </mxCell>
        <mxCell id="ovzpAfmYLOpZnLP-KOeR-2" value="&lt;ul&gt;&lt;li&gt;Sensor de peso&lt;/li&gt;&lt;li&gt;Placa Wifi&lt;/li&gt;&lt;li&gt;Bateria recargable&lt;/li&gt;&lt;li&gt;Contenedor&lt;/li&gt;&lt;/ul&gt;" style="whiteSpace=wrap;html=1;aspect=fixed;fillColor=#d5e8d4;strokeColor=#82b366;align=left;fontSize=14;fontFamily=Helvetica;" vertex="1" parent="1">
          <mxGeometry x="17" y="165" width="127" height="127" as="geometry" />
        </mxCell>
        <mxCell id="ovzpAfmYLOpZnLP-KOeR-6" value="" style="edgeStyle=orthogonalEdgeStyle;rounded=0;orthogonalLoop=1;jettySize=auto;html=1;" edge="1" parent="1" source="ovzpAfmYLOpZnLP-KOeR-4" target="ovzpAfmYLOpZnLP-KOeR-5">
          <mxGeometry relative="1" as="geometry" />
        </mxCell>
        <mxCell id="ovzpAfmYLOpZnLP-KOeR-4" value="Configurar&amp;nbsp; el dispositivo, conectar a wifi y vincular a la app, finalmente registrar el producto" style="whiteSpace=wrap;html=1;aspect=fixed;fillColor=#d5e8d4;strokeColor=#82b366;fontSize=16;fontFamily=Helvetica;" vertex="1" parent="1">
          <mxGeometry x="30" y="415" width="152" height="152" as="geometry" />
        </mxCell>
        <mxCell id="ovzpAfmYLOpZnLP-KOeR-8" value="" style="edgeStyle=orthogonalEdgeStyle;rounded=0;orthogonalLoop=1;jettySize=auto;html=1;" edge="1" parent="1" source="ovzpAfmYLOpZnLP-KOeR-5" target="ovzpAfmYLOpZnLP-KOeR-7">
          <mxGeometry relative="1" as="geometry" />
        </mxCell>
        <mxCell id="ovzpAfmYLOpZnLP-KOeR-5" value="Previa limpieza del recipiente, colocar fruto seco a granel" style="whiteSpace=wrap;html=1;fontSize=16;fillColor=#d5e8d4;strokeColor=#82b366;" vertex="1" parent="1">
          <mxGeometry x="327" y="437.5" width="120" height="107" as="geometry" />
        </mxCell>
        <mxCell id="ovzpAfmYLOpZnLP-KOeR-10" value="" style="edgeStyle=orthogonalEdgeStyle;rounded=0;orthogonalLoop=1;jettySize=auto;html=1;entryX=1;entryY=0.5;entryDx=0;entryDy=0;" edge="1" parent="1" source="ovzpAfmYLOpZnLP-KOeR-7" target="ovzpAfmYLOpZnLP-KOeR-9">
          <mxGeometry relative="1" as="geometry" />
        </mxCell>
        <mxCell id="ovzpAfmYLOpZnLP-KOeR-7" value="Medición y monitoreo automatico, sensor detecta peso y envia datos a app" style="whiteSpace=wrap;html=1;fontSize=16;fillColor=#d5e8d4;strokeColor=#82b366;" vertex="1" parent="1">
          <mxGeometry x="544" y="281" width="147" height="103.5" as="geometry" />
        </mxCell>
        <mxCell id="ovzpAfmYLOpZnLP-KOeR-12" value="" style="edgeStyle=orthogonalEdgeStyle;rounded=0;orthogonalLoop=1;jettySize=auto;html=1;" edge="1" parent="1" source="ovzpAfmYLOpZnLP-KOeR-9" target="ovzpAfmYLOpZnLP-KOeR-11">
          <mxGeometry relative="1" as="geometry" />
        </mxCell>
        <mxCell id="ovzpAfmYLOpZnLP-KOeR-9" value="Visualización de datos en App, consumo diario, mensual y alertas de consumo" style="whiteSpace=wrap;html=1;fontSize=16;fillColor=#d5e8d4;strokeColor=#82b366;" vertex="1" parent="1">
          <mxGeometry x="401" y="121" width="174" height="132" as="geometry" />
        </mxCell>
        <mxCell id="ovzpAfmYLOpZnLP-KOeR-11" value="Producto listo para uso continuo" style="whiteSpace=wrap;html=1;fontSize=16;fillColor=#d5e8d4;strokeColor=#82b366;" vertex="1" parent="1">
          <mxGeometry x="197" y="140" width="120" height="93" as="geometry" />
        </mxCell>
        <mxCell id="ovzpAfmYLOpZnLP-KOeR-13" value="1" style="ellipse;whiteSpace=wrap;html=1;aspect=fixed;strokeColor=light-dark(#e53838, #ededed);fontSize=19;" vertex="1" parent="1">
          <mxGeometry x="190" y="533" width="46" height="46" as="geometry" />
        </mxCell>
        <mxCell id="ovzpAfmYLOpZnLP-KOeR-15" value="2" style="ellipse;whiteSpace=wrap;html=1;aspect=fixed;strokeColor=light-dark(#e53838, #ededed);fontSize=19;" vertex="1" parent="1">
          <mxGeometry x="474" y="530" width="46" height="46" as="geometry" />
        </mxCell>
        <mxCell id="ovzpAfmYLOpZnLP-KOeR-16" value="3" style="ellipse;whiteSpace=wrap;html=1;aspect=fixed;strokeColor=light-dark(#e53838, #ededed);fontSize=19;" vertex="1" parent="1">
          <mxGeometry x="669" y="396" width="46" height="46" as="geometry" />
        </mxCell>
        <mxCell id="ovzpAfmYLOpZnLP-KOeR-17" value="4" style="ellipse;whiteSpace=wrap;html=1;aspect=fixed;strokeColor=light-dark(#e53838, #ededed);fontSize=19;" vertex="1" parent="1">
          <mxGeometry x="601" y="102" width="46" height="46" as="geometry" />
        </mxCell>
        <mxCell id="ovzpAfmYLOpZnLP-KOeR-18" value="5" style="ellipse;whiteSpace=wrap;html=1;aspect=fixed;strokeColor=light-dark(#e53838, #ededed);fontSize=19;" vertex="1" parent="1">
          <mxGeometry x="241" y="53" width="46" height="46" as="geometry" />
        </mxCell>
      </root>
    </mxGraphModel>
  </diagram>
</mxfile>
